<svg width="216" height="52" fill="none" xmlns="http://www.w3.org/2000/svg"><path d="M44.55 44.48C39.52 49.492 33.364 52 26.083 52c-7.281 0-13.46-2.507-18.538-7.52C2.515 39.417 0 33.257 0 26c0-7.258 2.515-13.394 7.545-18.408C12.622 2.531 18.802 0 26.083 0 33.364 0 39.52 2.53 44.55 7.592c5.078 5.014 7.616 11.15 7.616 18.408 0 7.258-2.538 13.418-7.616 18.48zm-31.185-5.587c3.449 3.39 7.688 5.085 12.718 5.085s9.245-1.695 12.647-5.085c3.449-3.438 5.173-7.736 5.173-12.893 0-5.157-1.724-9.43-5.173-12.82-3.402-3.439-7.617-5.158-12.647-5.158s-9.27 1.719-12.718 5.157C9.964 16.57 8.263 20.843 8.263 26s1.7 9.455 5.102 12.893zM80.205 52c-7.808 0-13.198-3.056-16.168-9.168l7.114-4.154c1.629 3.533 4.67 5.3 9.126 5.3 2.874 0 5.077-.692 6.61-2.077 1.581-1.433 2.371-3.438 2.371-6.017V.931h8.264v34.953c0 5.157-1.63 9.145-4.887 11.962-3.257 2.77-7.4 4.154-12.43 4.154zm48.459 0c-7.808 0-13.197-3.056-16.167-9.168l7.114-4.154c1.628 3.533 4.67 5.3 9.125 5.3 2.874 0 5.078-.692 6.611-2.077 1.581-1.433 2.371-3.438 2.371-6.017V.931h8.263v34.953c0 5.157-1.628 9.145-4.886 11.962-3.257 2.77-7.401 4.154-12.431 4.154zm79.719-7.52c-5.029 5.013-11.185 7.52-18.466 7.52-7.281 0-13.461-2.507-18.539-7.52-5.029-5.062-7.544-11.222-7.544-18.48 0-7.258 2.515-13.394 7.544-18.408C176.456 2.531 182.636 0 189.917 0c7.281 0 13.437 2.53 18.466 7.592C213.461 12.606 216 18.742 216 26c0 7.258-2.539 13.418-7.617 18.48zm-31.184-5.587c3.449 3.39 7.688 5.085 12.718 5.085s9.245-1.695 12.646-5.085c3.449-3.438 5.174-7.736 5.174-12.893 0-5.157-1.725-9.43-5.174-12.82-3.401-3.439-7.616-5.158-12.646-5.158-5.03 0-9.269 1.719-12.718 5.157-3.401 3.39-5.102 7.664-5.102 12.821s1.701 9.455 5.102 12.893z" fill="#fff"/><path d="M36.13 23.933l-.005-.052a.708.708 0 00-.06-.187l-2.94-5.271s-.376-.517-.465-.517H20.127l-3.77 5.609-.044.052-.006.024a.963.963 0 00-.078.18l-.015.05a.9.9 0 00.006.492l.017.056a.914.914 0 00.087.182l9.113 12.85.019.03a.828.828 0 00.174.181l.052.037a.897.897 0 00.186.097l.051.019c.09.025.167.037.242.037a.877.877 0 00.252-.04l.062-.024a.87.87 0 00.18-.099l.041-.028a.762.762 0 00.158-.162l9.124-12.864a.97.97 0 00.153-.409l.007-.066.004-.053-.011-.124zm-4.892-.342l1.299-2.617 1.298 2.617h-2.597zm-.779 1.55h3.082l-5.136 7.243 2.054-7.243zm-.762-2.335l-1.876-2.833h3.282l-1.406 2.833zm-6.009 2.335h4.948l-2.474 8.722-2.474-8.722zm.49-1.55l1.983-2.995 1.983 2.995H24.18zm-1.396-1.02l-.86-2.598h2.58l-1.72 2.599zm1.137 9.813l-5.136-7.243h3.082l2.054 7.243zm-3.484-11.392l.86 2.599h-2.58l1.72-2.599zm179.364 2.941l-.006-.052a.708.708 0 00-.059-.187l-2.941-5.271s-.375-.517-.464-.517h-12.534l-3.769 5.609-.045.052-.006.024a.957.957 0 00-.078.18l-.015.05a.9.9 0 00.006.492l.018.056a.843.843 0 00.087.182l9.113 12.85.018.03a.827.827 0 00.174.181l.053.037a.892.892 0 00.185.097l.052.019a.87.87 0 00.242.037.881.881 0 00.252-.04l.062-.024a.89.89 0 00.18-.099l.041-.028a.759.759 0 00.157-.162l9.124-12.864a.96.96 0 00.154-.409l.007-.066.003-.053-.011-.124zm-4.893-.342l1.299-2.617 1.298 2.617h-2.597zm-.779 1.55h3.082l-5.136 7.243 2.054-7.243zm-.762-2.335l-1.876-2.833h3.282l-1.406 2.833zm-6.008 2.335h4.948l-2.475 8.722-2.473-8.722zm.49-1.55l1.983-2.995 1.982 2.995h-3.965zm-1.396-1.02l-.86-2.598h2.58l-1.72 2.599zm1.137 9.813l-5.137-7.243h3.082l2.055 7.243zm-3.484-11.392l.86 2.599h-2.58l1.72-2.599z" fill="#fff"/></svg>